<svg version="1.1" id="Capa_1" xmlns="http://www.w3.org/2000/svg" x="0" y="0" viewBox="0 0 320.5 382.8" xml:space="preserve"><style>.st0{fill:#fff}</style><path class="st0" d="M288.4 98.6h-51.2s19.7 39.4 19.7 118.2-35.5 106.4-94.6 106.4-94.6-27.6-94.6-106.4S87.4 98.6 87.4 98.6H35.9c-15.2 0-31.3 7.9-35.3 118.2 0 118.2 54 165.4 161.6 165.6 107.4.2 161.9-47.4 157.7-165.6-3.9-110.3-15.8-118.2-31.5-118.2z"/><path class="st0" d="M124.6.3c2.2 0 35.7.2 50.9-.1 3.5-.1 6.8 1.6 8.6 4.6 9.3 12.8 12.9 27.8 13.5 44 .8 21.7-5 41.8-11.4 61.9-3.7 11.4-7.7 22.8-9.8 34.7-4.5 24.6.7 46.9 15.2 66.2 1.1 1.4 2.2 2.9 3.3 4.3v.9c-1.2.1-2.5.3-3.8.3-15.4 0-30.9-.1-46.3.1-2.7.2-5.2-1.2-6.6-3.6-9-13.2-13.3-28.4-14.8-44.8-1.7-19.1 3.2-36.8 8.9-54.4 4.6-14.4 9.9-28.7 12.4-43.5 3.8-22.3 1.6-43.8-12.3-61.9-2.2-3.1-4.8-5.5-7.8-8.7z"/></svg>