<svg xmlns="http://www.w3.org/2000/svg" viewBox="0 0 511 511"><path d="M488.9 125.1c-10.7-10.7-29.3-23.3-57.5-23.3h-.3c-3.5 0-7 .3-10.7.8 2.4-21.3 9.3-50.8 28.8-67.4 8.4-7.2 9.4-19.8 2.2-28.1-7.2-8.4-19.8-9.4-28.1-2.2-30.8 26.3-40.2 69.1-43 97.2-9.3-2.1-18.1-3.2-26.4-3.2h-.6c-33.3.2-54.1 15.2-65.6 27.8-13.2 14.4-21.1 33.2-21.1 50.1 0 6.3 3 12.2 8 16 3.2 2.4 7.1 3.7 11 3.9-2.9 32.8-12.7 76.9-33.6 115.9-27.7 51.6-65.4 77.8-112.2 77.8-30.5 0-56.3-12.6-76.7-37.5-16.1-19.7-22.9-40-23-40.4 0-.1-.1-.3-.2-.4-.1-.4-.3-.8-.4-1.2-.1-.2-.2-.5-.3-.7-.2-.3-.3-.7-.5-1-.1-.3-.3-.5-.4-.8-.2-.3-.3-.6-.5-.8-.2-.3-.4-.6-.6-.8-.2-.2-.4-.5-.5-.7-.2-.3-.5-.6-.7-.8l-.6-.6c-.3-.3-.5-.5-.8-.7-.2-.2-.4-.4-.7-.6-.3-.2-.5-.4-.8-.6-.3-.2-.5-.4-.8-.6-.2-.2-.5-.3-.8-.5-.3-.2-.6-.4-.9-.5-.2-.1-.5-.3-.7-.4-.3-.2-.7-.3-1-.5-.2-.1-.5-.2-.7-.3-.4-.1-.7-.3-1.1-.4-.3-.1-.5-.2-.8-.2-.4-.1-.7-.2-1.1-.3-.3-.1-.6-.1-.9-.2-.3-.1-.6-.1-1-.1s-.7-.1-1.1-.1h-2.9c-.4 0-.7.1-1.1.1-.3 0-.6.1-1 .2-.3.1-.6.1-.9.2-.4.1-.8.2-1.1.3-.1 0-.2 0-.3.1-.2 0-.3.1-.4.2-.4.1-.8.3-1.2.4-.3.1-.5.2-.7.3-.3.2-.7.3-1 .5-.3.1-.5.3-.8.5-.3.2-.6.3-.8.5l-.9.6c-.2.2-.5.3-.7.5-.3.2-.6.5-.8.7l-.6.6-.8.8-.6.6c-.2.3-.4.5-.7.8-.2.2-.4.5-.5.8-.2.3-.4.5-.5.8-.2.3-.4.6-.5.9-.1.3-.3.5-.4.8-.2.3-.3.7-.5 1-.1.2-.2.5-.3.8-.1.3-.2.7-.4 1-.1.3-.2.5-.2.8-.1.3-.2.7-.2 1-.1.3-.1.6-.2 1-.1.3-.1.6-.1.9 0 .4-.1.7-.1 1.1v2.5c.1 1.9 3.3 48.1 28.7 94.6 24.1 44.1 73 96.7 168.8 96.7 64.2 0 124.2-17.1 173.6-49.5 9.2-6 11.8-18.4 5.8-27.6s-18.4-11.8-27.6-5.8c-42.9 28.1-95.4 42.9-151.8 42.9-52.3 0-92.7-18.6-120.6-55.4 18.8 9.6 39.5 14.5 61.7 14.5 61.7 0 112.7-34.2 147.3-98.9 24.6-45.9 35.7-98.2 38.6-136 3.3 1 6.6 2.3 9.7 4.1 10.6 6.3 17.8 17.8 21.5 34.4 1.9 8.7 9.4 15.2 18.4 15.7h1.2c8.5 0 16.1-5.4 18.9-13.5.1-.2 8.6-22.8 26-24.5 11-1.1 19-10.8 17.9-21.8-1.1-11-10.8-19-21.8-17.9-15.1 1.5-27.3 8.1-36.8 16.6-6.6-9.7-15-17.5-25-23.4-12.2-7.2-25.6-10.5-38.4-11.4 7.4-8 19-14.8 36.3-14.9 10.6-.1 23.5 2.8 38.3 8.5h.1c.1 0 .2.1.2.1.1.1.3.1.4.1.4.2.8.3 1.3.4.2 0 .3.1.5.1.4.1.9.2 1.3.3.2 0 .4.1.6.1.4.1.8.1 1.2.2.6.1 1.2.1 1.8.1h1.4c.4 0 .8-.1 1.2-.1.3 0 .5-.1.8-.1.3-.1.7-.1 1-.2.3-.1.6-.1.9-.2.2-.1.5-.2.7-.2.4-.1.7-.2 1.1-.4 10-3.8 18.4-5.7 25-5.7h.2c11.7 0 21.5 3.9 29.3 11.7 7.8 7.8 11.3 17.5 11.3 23.2 0 75.2-20.6 142.2-59.7 193.5-6.7 8.8-5 21.3 3.8 28 3.6 2.7 7.9 4.1 12.1 4.1 6 0 12-2.7 15.9-7.9C488.5 336 512 260.7 512 176.7c0-17.6-8.9-37.4-23.1-51.6z" fill="#fff"/></svg>